<svg width="32" height="33" viewBox="0 0 32 33" fill="none" xmlns="http://www.w3.org/2000/svg">
<path d="M15.9984 6.42488C19.2042 6.42488 19.5837 6.43913 20.8443 6.49537C22.0163 6.54712 22.6485 6.74359 23.0707 6.90782C23.6286 7.12379 24.0313 7.38626 24.4483 7.8032C24.8705 8.22539 25.1277 8.62359 25.3482 9.18152C25.5124 9.60371 25.7089 10.2404 25.7606 11.408C25.8168 12.6738 25.8311 13.0532 25.8311 16.2546C25.8311 19.4559 25.8168 19.8398 25.7606 21.1012C25.7089 22.2733 25.5124 22.9054 25.3482 23.3276C25.1322 23.8856 24.8705 24.2882 24.4528 24.7052C24.0306 25.1274 23.6324 25.3846 23.0752 25.6051C22.653 25.7693 22.0156 25.9658 20.8488 26.0175C19.5829 26.0738 19.2035 26.088 16.0021 26.088C12.8008 26.088 12.4169 26.0738 11.1555 26.0175C9.98345 25.9658 9.35129 25.7693 8.92909 25.6051C8.37117 25.3891 7.96847 25.1274 7.55078 24.7097C7.12858 24.2875 6.87137 23.8893 6.6509 23.3321C6.48667 22.9099 6.29019 22.2725 6.23845 21.1057C6.18221 19.8398 6.16796 19.4604 6.16796 16.2591C6.16796 13.0577 6.18221 12.6738 6.23845 11.4125C6.29019 10.2404 6.48667 9.60821 6.6509 9.18602C6.86687 8.62809 7.12933 8.22539 7.54628 7.8077C7.96847 7.38551 8.36667 7.12829 8.92459 6.90782C9.34679 6.74359 9.98345 6.54712 11.151 6.49537C12.4116 6.43913 12.7918 6.42488 15.9976 6.42488H15.9984ZM15.9984 4.26442C12.7408 4.26442 12.3336 4.27867 11.0536 4.33491C9.77873 4.39115 8.9021 4.59738 8.1432 4.89284C7.3513 5.2018 6.68089 5.60974 6.01573 6.28015C5.34532 6.94606 4.93737 7.61572 4.62842 8.40312C4.33296 9.16727 4.12673 10.0387 4.07049 11.3135C4.01425 12.5981 4 13.0053 4 16.2628C4 19.5204 4.01425 19.9276 4.07049 21.2077C4.12673 22.4825 4.33296 23.3591 4.62842 24.118C4.93812 24.9099 5.34532 25.5803 6.01573 26.2455C6.68089 26.9106 7.3513 27.3238 8.1387 27.6283C8.90285 27.9238 9.77423 28.13 11.0491 28.1862C12.3284 28.2425 12.7363 28.2567 15.9939 28.2567C19.2515 28.2567 19.6594 28.2425 20.9387 28.1862C22.2136 28.13 23.0902 27.9238 23.8491 27.6283C24.6365 27.3238 25.3069 26.9114 25.9721 26.2455C26.6372 25.5796 27.0504 24.9099 27.3549 24.1225C27.6503 23.3584 27.8566 22.487 27.9128 21.2122C27.9691 19.9328 27.9833 19.5249 27.9833 16.2673C27.9833 13.0098 27.9691 12.6026 27.9128 11.3225C27.8566 10.0477 27.6503 9.17102 27.3549 8.41212C27.0594 7.61497 26.6515 6.94531 25.9818 6.2794C25.3167 5.61424 24.6462 5.20105 23.8589 4.89659C23.0947 4.60113 22.2233 4.3949 20.9485 4.33866C19.6647 4.27792 19.2567 4.26367 15.9991 4.26367L15.9984 4.26442Z" fill="#0B0803"/>
<path d="M15.998 10.0996C12.5957 10.0996 9.83459 12.86 9.83459 16.263C9.83459 19.6661 12.595 22.4265 15.998 22.4265C19.4011 22.4265 22.1614 19.6661 22.1614 16.263C22.1614 12.8607 19.4011 10.0996 15.998 10.0996ZM15.998 20.2608C13.7903 20.2608 12.0003 18.4707 12.0003 16.263C12.0003 14.0553 13.7903 12.2653 15.998 12.2653C18.2057 12.2653 19.9957 14.0553 19.9957 16.263C19.9957 18.4707 18.2057 20.2608 15.998 20.2608Z" fill="#0B0803"/>
<path d="M23.843 9.85605C23.843 10.6509 23.1988 11.2951 22.4039 11.2951C21.609 11.2951 20.9648 10.6509 20.9648 9.85605C20.9648 9.06116 21.609 8.41699 22.4039 8.41699C23.1988 8.41699 23.843 9.06116 23.843 9.85605Z" fill="#0B0803"/>
</svg>
