<svg xmlns="http://www.w3.org/2000/svg" aria-hidden="true" style="position:absolute;width:0;height:0;overflow:hidden"><defs>
<symbol id="arrow" viewBox="0 0 35 32"><path d="M14.122 4.56 25.655 16 14.122 27.44l3.755 3.787L33.229 16 17.877.773 14.122 4.56z"/><path d="M4.544.773.789 4.56 12.322 16 .789 27.44l3.755 3.787L19.896 16 4.544.773z"/></symbol>
<symbol id="astra" viewBox="0 0 34 32"><path stroke-width="1.684" d="M16.053 1.359c.29-.688 1.289-.688 1.579 0l3.416 8.115a2.537 2.537 0 0 0 2.14 1.539l8.868.702a.828.828 0 0 1 .49 1.457l-6.758 5.719a2.506 2.506 0 0 0-.821 2.502l2.066 8.549c.167.694-.609 1.303-1.28.898h-.002l-7.59-4.581a2.555 2.555 0 0 0-2.638 0L7.931 30.84c-.671.405-1.447-.204-1.28-.898l2.066-8.549a2.506 2.506 0 0 0-.821-2.502l-6.758-5.719a.827.827 0 0 1 .49-1.457l8.868-.702a2.54 2.54 0 0 0 2.14-1.539l3.416-8.115z"/></symbol>
<symbol id="astra-dark" viewBox="0 0 34 32"><path d="M15.277 1.031c.579-1.375 2.551-1.375 3.13 0l3.417 8.116c.244.58.796.976 1.43 1.026l8.869.702c1.503.119 2.112 1.972.967 2.941l-6.757 5.718a1.66 1.66 0 0 0-.546 1.66l2.064 8.55c.35 1.449-1.245 2.594-2.532 1.817l-7.593-4.582a1.714 1.714 0 0 0-1.767 0l-7.593 4.582c-1.287.776-2.882-.369-2.532-1.817l2.064-8.55a1.662 1.662 0 0 0-.546-1.66L.595 13.816c-1.145-.969-.536-2.822.967-2.941l8.869-.702a1.692 1.692 0 0 0 1.429-1.026l3.417-8.116z"/></symbol>
<symbol id="close" viewBox="0 0 32 32"><path d="M27.179.918 15.864 12.23 4.552.918.781 4.689l11.312 11.312L.781 27.313l3.771 3.771 11.312-11.312 11.315 11.312 3.771-3.771-11.312-11.312L30.95 4.689 27.179.918z"/></symbol>
<symbol id="email" viewBox="0 0 40 32"><path d="M36 0H4C1.794 0 0 1.794 0 4v24c0 2.206 1.794 4 4 4h32c2.206 0 4-1.794 4-4V4c0-2.206-1.794-4-4-4zm0 4v1.022L20 17.468 4 5.024V4h32zM4 28V10.088l14.772 11.49a1.99 1.99 0 0 0 2.456 0L36 10.088 36.004 28H4z"/></symbol>
<symbol id="facebook" viewBox="0 0 30 32"><path d="M30.476 15.701C30.476 7.234 23.654.37 15.238.37S0 7.234 0 15.701c0 7.652 5.572 13.995 12.857 15.145V20.133H8.988v-4.432h3.869v-3.378c0-3.842 2.275-5.965 5.756-5.965 1.667 0 3.411.299 3.411.299v3.773h-1.921c-1.893 0-2.483 1.182-2.483 2.394V15.7h4.226l-.675 4.432H17.62v10.713c7.285-1.15 12.857-7.493 12.857-15.145z"/></symbol>
<symbol id="favicon" viewBox="0 0 32 32"><path d="M31.923 14.443C31.062 5.634 23.21-.801 14.402.082 5.627.962-.781 8.779.078 17.558c.856 8.776 8.656 15.203 17.437 14.371 8.813-.839 15.269-8.675 14.408-17.485zM19.996 3.776c.196-.001.341.039.524.088l.039.011c.071.356 0 .521-.187.825-.327.531-.689 1.04-1.053 1.549-.641.897-1.283 1.796-1.723 2.819-.952 2.219-.731 4.805-.507 7.42.197 2.288.395 4.597-.191 6.697-.707 2.528-2.476 4.18-4.693 5.413-.123.02-.259.009-.389 0l-.045-.004-.035-.002-.051-.003-.021-.04c-.127-.24-.133-.255-.043-.529.12-.353.355-.717.577-1.059.054-.077.134-.202.212-.328l.031-.054c.771-1.284 1.525-2.671 1.763-4.169.295-1.871.137-3.797-.02-5.723-.2-2.443-.399-4.887.327-7.219.891-2.867 2.976-4.36 5.485-5.693z"/></symbol>
<symbol id="Instagram" viewBox="0 0 32 32"><path d="M15.998 6.161c3.206 0 3.585.014 4.846.071 1.172.052 1.804.248 2.226.412.558.216.961.478 1.378.895.422.422.679.82.9 1.378.164.422.361 1.059.412 2.226.056 1.266.071 1.645.071 4.847s-.014 3.585-.071 4.847c-.052 1.172-.248 1.804-.412 2.227a3.702 3.702 0 0 1-.895 1.377c-.422.422-.82.679-1.378.9-.422.164-1.06.361-2.226.412-1.266.056-1.645.071-4.847.071s-3.585-.014-4.847-.071c-1.172-.052-1.804-.248-2.226-.412a3.714 3.714 0 0 1-1.378-.895 3.767 3.767 0 0 1-.9-1.378c-.164-.422-.361-1.06-.412-2.226-.056-1.266-.071-1.645-.071-4.847s.014-3.585.071-4.847c.052-1.172.248-1.804.412-2.226.216-.558.478-.961.895-1.378.422-.422.82-.679 1.378-.9.422-.164 1.059-.361 2.226-.412 1.261-.056 1.641-.071 4.847-.071h.001zm0-2.16c-3.258 0-3.665.014-4.945.071-1.275.056-2.151.262-2.91.558a5.847 5.847 0 0 0-2.127 1.387A5.883 5.883 0 0 0 4.629 8.14c-.295.764-.502 1.636-.558 2.91C4.015 12.335 4 12.742 4 15.999s.014 3.665.071 4.945c.056 1.275.262 2.151.558 2.91a5.86 5.86 0 0 0 1.387 2.127 5.876 5.876 0 0 0 2.123 1.383c.764.295 1.636.502 2.91.558 1.279.056 1.687.071 4.945.071s3.666-.014 4.945-.071c1.275-.056 2.151-.262 2.91-.558.787-.305 1.458-.717 2.123-1.383s1.078-1.336 1.383-2.123c.295-.764.502-1.635.558-2.91.056-1.279.071-1.687.071-4.945s-.014-3.665-.071-4.945c-.056-1.275-.262-2.151-.558-2.91a5.622 5.622 0 0 0-1.373-2.133 5.876 5.876 0 0 0-2.123-1.383c-.764-.295-1.635-.502-2.91-.558-1.284-.061-1.692-.075-4.949-.075L15.999 4z"/><path d="M15.998 9.836a6.164 6.164 0 1 0 6.163 6.163 6.164 6.164 0 0 0-6.163-6.163zm0 10.161a3.998 3.998 0 1 1 0-7.996 3.998 3.998 0 0 1 0 7.996zM23.843 9.592a1.439 1.439 0 1 1-2.877 0 1.439 1.439 0 0 1 2.877 0z"/></symbol>
<symbol id="logo" viewBox="0 0 56 32"><path d="M22.524 8.795a5.026 5.026 0 1 0-10.004.98 5.026 5.026 0 0 0 10.004-.98zm-3.746-3.351c.061 0 .107.012.164.028l.012.003c.022.112 0 .164-.059.259a8.48 8.48 0 0 1-.331.486c-.201.282-.403.564-.541.886-.299.697-.23 1.51-.159 2.331.062.719.124 1.444-.06 2.104-.222.794-.778 1.313-1.474 1.7a.553.553 0 0 1-.122 0l-.025-.002-.016-.001-.007-.013c-.04-.075-.042-.08-.013-.166.037-.111.112-.225.181-.333.027-.041.053-.081.076-.12.242-.403.479-.839.554-1.31.093-.588.043-1.193-.006-1.797-.063-.767-.125-1.535.102-2.268.28-.9.935-1.37 1.723-1.789zM34.356 23.395a4.899 4.899 0 1 0-9.731 1.138 4.899 4.899 0 0 0 9.731-1.138zm-5.424-3.171c.65-.048 1.258.11 1.782.5.848.631 1.281 1.673 1.424 2.694.152 1.077.137 2.573-.565 3.475-.383.492-.867.691-1.466.765a2.66 2.66 0 0 1-1.8-.482c-.825-.595-1.249-1.573-1.402-2.553-.175-1.116-.169-2.678.555-3.62.385-.501.866-.7 1.472-.778zM6.45.245C7.322.131 8.308.22 9.156.434c.516.13 1.03.307 1.558.381.303.043.621.039.927.045.05.849.213 2.883.115 3.63-.156.03-.276.022-.433 0-.161-.186-.237-.602-.333-.844a3.485 3.485 0 0 0-1.934-1.925c-1.102-.452-2.417-.394-3.502.075-1.14.493-2.069 1.478-2.522 2.633-.701 1.788-.696 4.083.09 5.843.545 1.22 1.515 2.293 2.784 2.769 1.211.455 2.528.32 3.688-.212.518-.264.997-.657 1.306-1.156.174-.282.303-.818.579-1l.077.031c.297.376.408 1.55.506 2.055-1.118.986-2.468 1.639-3.951 1.835-1.941.255-3.967-.137-5.535-1.347C1.148 12.145.281 10.414.067 8.64c-.249-2.062.206-4.142 1.511-5.783C2.78 1.345 4.549.461 6.452.243zM42.902 5.142c-.52-.129-1.148-.199-1.681-.133-1.243.122-2.306.601-3.114 1.576a5.331 5.331 0 0 0-1.182 3.9c.124 1.198.675 2.389 1.63 3.147 1.004.797 2.422 1.021 3.668.874 1.106-.131 2.086-.608 2.772-1.501.314-.408.542-.869.721-1.35a3.924 3.924 0 0 1-.066-.064c-.106-.104-.215-.212-.358-.255a.636.636 0 0 1-.033.014.168.168 0 0 0-.097.08c-.591.871-1.269 1.447-2.328 1.645-.825.154-1.646.012-2.338-.474a3.622 3.622 0 0 1-1.24-1.578c1.266-.751 2.642-1.511 4.099-1.809.288-.059.582-.092.875-.125.308-.035.615-.069.914-.134.2-.043.344-.084.412-.296.17-.533-.099-1.403-.367-1.862-.491-.84-1.353-1.423-2.288-1.655zm-1.288.847c.237.001.49.018.718.081.386.106.735.335.923.696.13.25.232.651.13.924-.086.23-.272.387-.477.508-.256.151-.563.248-.859.342-.101.032-.2.063-.295.096-.517.179-1.026.373-1.519.612-.113.05-.255.14-.407.236-.285.18-.602.38-.817.377-.115-.096-.144-.176-.156-.32-.08-.958.306-2.047.925-2.771.454-.53 1.166-.726 1.834-.78zM52.214 5.05a5.731 5.731 0 0 0-1.111-.042c-1.262.103-2.328.563-3.154 1.545a5.314 5.314 0 0 0-1.211 3.904c.111 1.168.657 2.363 1.577 3.114.991.808 2.469 1.084 3.716.943 1.11-.126 2.107-.647 2.8-1.528a4.73 4.73 0 0 0 .739-1.358 3.276 3.276 0 0 1-.067-.06c-.115-.105-.251-.229-.396-.241-.594.894-1.305 1.524-2.382 1.741-.812.164-1.6.044-2.297-.418-.598-.397-1.033-.975-1.343-1.616 1.369-.931 3.053-1.645 4.68-1.946.202-.037.407-.053.612-.069.17-.013.339-.026.507-.052.219-.033.44-.083.489-.333.138-.704-.14-1.552-.556-2.118-.627-.854-1.567-1.322-2.603-1.466zm-1.203.973c.424-.034.838-.055 1.246.095.392.143.708.426.879.81.113.252.162.535.055.798a.919.919 0 0 1-.301.378c-.308.225-1.07.491-1.732.722-.326.114-.629.22-.841.308-.34.152-.669.336-.996.52-.182.102-.363.204-.546.3-.154-.938-.057-1.894.453-2.716.422-.679 1.017-1.038 1.783-1.213zM19.573 16.304c1.004-.006 3.825-.131 4.586.07.064.087.058.089.05.198-.176.296-.551.416-.812.628a.946.946 0 0 0-.331.488c-.168.709-.102 1.528-.102 2.256l-.02 3.074c-.005.733.018 1.483-.068 2.212-.123 1.043-.583 2.012-1.426 2.662-1.05.81-2.517.99-3.801.816-1.124-.152-2.221-.639-2.921-1.562-.634-.837-.795-1.815-.66-2.838a3.33 3.33 0 0 1 .146-.528 2.485 2.485 0 0 1 1.339-1.433c.667-.286 1.508-.307 2.178-.018.326.14.531.381.651.715.073.204.097.379.004.577-.27.255-.878-.087-1.256.019a1.282 1.282 0 0 0-.782.658c-.29.549-.297 1.268-.089 1.846.185.515.603.931 1.095 1.159.585.27 1.407.338 2.018.111.473-.176.821-.552 1.012-1.015.164-.398.242-.856.28-1.283.087-.963.196-6.777-.016-7.406-.224-.663-.986-.683-1.161-1.087a.46.46 0 0 1 .049-.251l.038-.067zM40.318 27.076c.428-1.06.798-2.152 1.192-3.225.308-.836.688-1.7.876-2.57a1.13 1.13 0 0 0 .006-.554c-.158-.565-.887-.52-1.052-.956.023-.096.009-.137.101-.196.169-.108 3.144-.119 3.509-.073.121.015.208.042.288.14.008.21-.042.305-.231.412-.303.171-.688.258-.915.539-.357.443-1.702 4.23-2.034 5.091l-1.109 2.878c-.279.723-.541 1.508-.956 2.166-.252.398-.591.783-1.001 1.02-.599.345-1.359.408-2.022.222-.515-.145-.986-.464-1.233-.949a1.746 1.746 0 0 1-.1-1.304c.107-.305.354-.557.648-.689.19-.085.502-.158.699-.051.469.255.163 1.097.343 1.546a.525.525 0 0 0 .303.319c.251.101.686-.037.912-.147.764-.373 1.085-1.573 1.339-2.315-.321.006-.691.045-1.007-.01a.472.472 0 0 1-.155-.047c-.105-.061-.172-.171-.226-.276-.249-.486-.418-1.051-.613-1.563l-1.212-3.191c-.239-.627-.455-1.281-.748-1.884-.218-.45-.51-.909-.959-1.157-.223-.123-.516-.121-.667-.345-.026-.152.001-.245.048-.39.804-.033 4.036-.117 4.63.049a.638.638 0 0 1-.007.382c-.071.176-.412.231-.569.294-.169.068-.316.171-.382.349-.072.197.024.513.081.712.246.872.643 1.734.97 2.583.409 1.06.777 2.16 1.253 3.191zM34.627 1.037c.714-.037 1.391.054 2.015.428.455.273.841.683.956 1.214.063.288.043.593-.125.844-.182.272-.55.484-.873.524-.194.024-.422-.002-.578-.128-.361-.292-.193-.81-.261-1.209a.731.731 0 0 0-.335-.512 1.42 1.42 0 0 0-1.039-.146c-.279.077-.48.274-.608.528-.409.807-.183 1.861.07 2.677.856.021 1.716.004 2.573.003.002.363-.004.721-.032 1.083-.827-.001-1.656-.013-2.483.018-.053.85-.032 1.714-.037 2.566-.008 1.275-.134 2.683.159 3.924.044.115.093.223.153.331.258.469.416.419.875.57.156.051.247.115.315.26a.397.397 0 0 1-.098.269c-.041.026-.057.041-.11.05-.166.032-4.158.014-4.384-.023-.155-.026-.264-.06-.362-.192.064-.377.484-.35.736-.594.289-.279.434-.653.514-1.04.175-.842.107-1.795.104-2.655l-.016-3.479-1.633-.006c-.033-.359-.035-.722-.045-1.083l1.626-.001a4.327 4.327 0 0 1-.194-.75 2.845 2.845 0 0 1 .533-2.123c.614-.809 1.601-1.222 2.585-1.35z"/><path d="M27.871 1.038c.658-.055 1.289-.007 1.88.316.472.258.874.684 1.019 1.212.09.327.099.741-.085 1.038a.86.86 0 0 1-.589.379c-.219.041-.508.04-.69-.106-.345-.277-.114-.81-.191-1.178-.046-.221-.225-.409-.418-.515-.305-.167-.744-.188-1.074-.088a.965.965 0 0 0-.606.518c-.364.743-.088 1.882.162 2.622.82.049 1.658.011 2.48.015.021.367.002.726-.02 1.092-.835-.002-1.67.001-2.505.009a71.137 71.137 0 0 0-.046 3.133c-.003 1.076-.11 2.285.206 3.323.347.76 1.067.888 1.237 1.294-.026.074-.015.087-.089.13-.263.157-4.261.126-4.618.042-.014-.049-.032-.105-.034-.155-.011-.317.489-.45.681-.64.267-.264.4-.753.462-1.117.139-.818.095-1.72.094-2.549L25.12 6.35l-1.628-.007c-.025-.361-.024-.721-.023-1.083.519.006 1.039.005 1.558-.002-.08-.265-.165-.53-.206-.804-.111-.745.051-1.482.507-2.088.612-.814 1.565-1.191 2.545-1.329z"/></symbol>
<symbol id="map-marker" viewBox="0 0 26 32"><path d="M12.8 19.2c3.53 0 6.4-2.87 6.4-6.4s-2.87-6.4-6.4-6.4c-3.53 0-6.4 2.87-6.4 6.4s2.87 6.4 6.4 6.4zm0-9.6c1.765 0 3.2 1.435 3.2 3.2S14.565 16 12.8 16c-1.765 0-3.2-1.435-3.2-3.2s1.435-3.2 3.2-3.2z"/><path d="M11.872 31.702a1.6 1.6 0 0 0 1.856 0c.486-.344 11.918-8.598 11.872-18.902C25.6 5.742 19.858 0 12.8 0S0 5.742 0 12.792c-.046 10.312 11.386 18.566 11.872 18.91zM12.8 3.2c5.294 0 9.6 4.306 9.6 9.608.034 7.101-7.021 13.477-9.6 15.568-2.578-2.093-9.634-8.47-9.6-15.576 0-5.294 4.306-9.6 9.6-9.6z"/></symbol>
<symbol id="map-pin" viewBox="0 0 32 32"><path d="m16 24 1.6-3.2v-8.227c2.754-.715 4.8-3.2 4.8-6.173C22.4 2.87 19.53 0 16 0S9.6 2.87 9.6 6.4c0 2.973 2.046 5.458 4.8 6.173V20.8L16 24zM12.8 6.4c0-1.765 1.435-3.2 3.2-3.2s3.2 1.435 3.2 3.2c0 1.765-1.435 3.2-3.2 3.2s-3.2-1.435-3.2-3.2z"/><path d="m22.827 13.701-.853 3.085C26.12 17.932 28.8 20.135 28.8 22.4c0 3.027-5.256 6.4-12.8 6.4S3.2 25.427 3.2 22.4c0-2.266 2.68-4.469 6.827-5.616l-.853-3.085C3.515 15.264 0 18.597 0 22.4 0 27.782 7.029 32 16 32s16-4.218 16-9.6c0-3.803-3.515-7.136-9.173-8.699z"/></symbol>
<symbol id="menu" viewBox="0 0 24 24"><path d="M4 6H20V8H4V6ZM4 11H20V13H4V11ZM4 16H20V18H4V16Z" fill="#0B0803" /></symbol>
<symbol id="phone" viewBox="0 0 32 32"><path d="M24.77 17.336a1.694 1.694 0 0 0-1.836-.365c-.205.084-.39.209-.546.365l-2.685 2.685c-1.245-.371-3.567-1.213-5.039-2.685s-2.314-3.795-2.685-5.039l2.685-2.685a1.694 1.694 0 0 0 .365-1.836 1.667 1.667 0 0 0-.365-.546L7.927.493A1.694 1.694 0 0 0 6.091.128c-.205.084-.39.209-.546.365L.977 5.061c-.64.64-1 1.519-.987 2.417.039 2.398.674 10.729 7.239 17.294s14.895 7.198 17.295 7.239h.047c.889 0 1.73-.35 2.366-.987l4.568-4.568a1.694 1.694 0 0 0 .365-1.836 1.667 1.667 0 0 0-.365-.546l-6.737-6.739zm-.214 11.304c-2.102-.035-9.293-.6-14.944-6.252C3.943 16.719 3.394 9.502 3.36 7.442l3.377-3.377 4.355 4.355-2.178 2.178c-.198.198-.344.442-.423.71s-.092.552-.035.826c.04.194 1.029 4.787 3.825 7.582s7.389 3.784 7.582 3.825a1.663 1.663 0 0 0 1.536-.457l2.179-2.178 4.355 4.355-3.379 3.377z"/></symbol>
<symbol id="twitter" viewBox="0 0 34 32"><path d="M26.684.457h5.195L20.528 13.214l13.353 17.36H23.426l-8.189-10.529-9.37 10.529H.668l12.141-13.646L-.001.456H10.72l7.402 9.624L26.683.456zm-1.823 27.059h2.879L9.157 3.354H6.068l18.794 24.162z"/></symbol>
<symbol id="chevron-right" viewBox="0 0 31 32"><path d="m12.425 22.691 7.305-7.305-7.305-7.305-1.81 1.81 5.495 5.495-5.495 5.495 1.81 1.81z"/></symbol>
</defs></svg>
