<svg xmlns="http://www.w3.org/2000/svg" aria-hidden="true" style="position:absolute;width:0;height:0;overflow:hidden"><defs>
<symbol id="arrow" viewBox="0 0 35 32"><path d="M14.122 4.56 25.655 16 14.122 27.44l3.755 3.787L33.229 16 17.877.773 14.122 4.56z"/><path d="M4.544.773.789 4.56 12.322 16 .789 27.44l3.755 3.787L19.896 16 4.544.773z"/></symbol>
<symbol id="astra" viewBox="0 0 34 32"><path stroke-width="1.684" d="M16.053 1.359c.29-.688 1.289-.688 1.579 0l3.416 8.115a2.537 2.537 0 0 0 2.14 1.539l8.868.702a.828.828 0 0 1 .49 1.457l-6.758 5.719a2.506 2.506 0 0 0-.821 2.502l2.066 8.549c.167.694-.609 1.303-1.28.898h-.002l-7.59-4.581a2.555 2.555 0 0 0-2.638 0L7.931 30.84c-.671.405-1.447-.204-1.28-.898l2.066-8.549a2.506 2.506 0 0 0-.821-2.502l-6.758-5.719a.827.827 0 0 1 .49-1.457l8.868-.702a2.54 2.54 0 0 0 2.14-1.539l3.416-8.115z"/></symbol>
<symbol id="astra-dark" viewBox="0 0 34 32"><path d="M15.277 1.031c.579-1.375 2.551-1.375 3.13 0l3.417 8.116c.244.58.796.976 1.43 1.026l8.869.702c1.503.119 2.112 1.972.967 2.941l-6.757 5.718a1.66 1.66 0 0 0-.546 1.66l2.064 8.55c.35 1.449-1.245 2.594-2.532 1.817l-7.593-4.582a1.714 1.714 0 0 0-1.767 0l-7.593 4.582c-1.287.776-2.882-.369-2.532-1.817l2.064-8.55a1.662 1.662 0 0 0-.546-1.66L.595 13.816c-1.145-.969-.536-2.822.967-2.941l8.869-.702a1.692 1.692 0 0 0 1.429-1.026l3.417-8.116z"/></symbol>
<symbol id="close" viewBox="0 0 32 32"><path d="M27.179.918 15.864 12.23 4.552.918.781 4.689l11.312 11.312L.781 27.313l3.771 3.771 11.312-11.312 11.315 11.312 3.771-3.771-11.312-11.312L30.95 4.689 27.179.918z"/></symbol>
<symbol id="email" viewBox="0 0 40 32"><path d="M36 0H4C1.794 0 0 1.794 0 4v24c0 2.206 1.794 4 4 4h32c2.206 0 4-1.794 4-4V4c0-2.206-1.794-4-4-4zm0 4v1.022L20 17.468 4 5.024V4h32zM4 28V10.088l14.772 11.49a1.99 1.99 0 0 0 2.456 0L36 10.088 36.004 28H4z"/></symbol>
<symbol id="facebook" viewBox="0 0 30 32"><path d="M30.476 15.701C30.476 7.234 23.654.37 15.238.37S0 7.234 0 15.701c0 7.652 5.572 13.995 12.857 15.145V20.133H8.988v-4.432h3.869v-3.378c0-3.842 2.275-5.965 5.756-5.965 1.667 0 3.411.299 3.411.299v3.773h-1.921c-1.893 0-2.483 1.182-2.483 2.394V15.7h4.226l-.675 4.432H17.62v10.713c7.285-1.15 12.857-7.493 12.857-15.145z"/></symbol>
<symbol id="favicon" viewBox="0 0 32 32"><path d="M31.923 14.443C31.062 5.634 23.21-.801 14.402.082 5.627.962-.781 8.779.078 17.558c.856 8.776 8.656 15.203 17.437 14.371 8.813-.839 15.269-8.675 14.408-17.485zM19.996 3.776c.196-.001.341.039.524.088l.039.011c.071.356 0 .521-.187.825-.327.531-.689 1.04-1.053 1.549-.641.897-1.283 1.796-1.723 2.819-.952 2.219-.731 4.805-.507 7.42.197 2.288.395 4.597-.191 6.697-.707 2.528-2.476 4.18-4.693 5.413-.123.02-.259.009-.389 0l-.045-.004-.035-.002-.051-.003-.021-.04c-.127-.24-.133-.255-.043-.529.12-.353.355-.717.577-1.059.054-.077.134-.202.212-.328l.031-.054c.771-1.284 1.525-2.671 1.763-4.169.295-1.871.137-3.797-.02-5.723-.2-2.443-.399-4.887.327-7.219.891-2.867 2.976-4.36 5.485-5.693z"/></symbol>
<symbol id="Instagram" viewBox="0 0 32 32"><path d="M15.998 6.161c3.206 0 3.585.014 4.846.071 1.172.052 1.804.248 2.226.412.558.216.961.478 1.378.895.422.422.679.82.9 1.378.164.422.361 1.059.412 2.226.056 1.266.071 1.645.071 4.847s-.014 3.585-.071 4.847c-.052 1.172-.248 1.804-.412 2.227a3.702 3.702 0 0 1-.895 1.377c-.422.422-.82.679-1.378.9-.422.164-1.06.361-2.226.412-1.266.056-1.645.071-4.847.071s-3.585-.014-4.847-.071c-1.172-.052-1.804-.248-2.226-.412a3.714 3.714 0 0 1-1.378-.895 3.767 3.767 0 0 1-.9-1.378c-.164-.422-.361-1.06-.412-2.226-.056-1.266-.071-1.645-.071-4.847s.014-3.585.071-4.847c.052-1.172.248-1.804.412-2.226.216-.558.478-.961.895-1.378.422-.422.82-.679 1.378-.9.422-.164 1.059-.361 2.226-.412 1.261-.056 1.641-.071 4.847-.071h.001zm0-2.16c-3.258 0-3.665.014-4.945.071-1.275.056-2.151.262-2.91.558a5.847 5.847 0 0 0-2.127 1.387A5.883 5.883 0 0 0 4.629 8.14c-.295.764-.502 1.636-.558 2.91C4.015 12.335 4 12.742 4 15.999s.014 3.665.071 4.945c.056 1.275.262 2.151.558 2.91a5.86 5.86 0 0 0 1.387 2.127 5.876 5.876 0 0 0 2.123 1.383c.764.295 1.636.502 2.91.558 1.279.056 1.687.071 4.945.071s3.666-.014 4.945-.071c1.275-.056 2.151-.262 2.91-.558.787-.305 1.458-.717 2.123-1.383s1.078-1.336 1.383-2.123c.295-.764.502-1.635.558-2.91.056-1.279.071-1.687.071-4.945s-.014-3.665-.071-4.945c-.056-1.275-.262-2.151-.558-2.91a5.622 5.622 0 0 0-1.373-2.133 5.876 5.876 0 0 0-2.123-1.383c-.764-.295-1.635-.502-2.91-.558-1.284-.061-1.692-.075-4.949-.075L15.999 4z"/><path d="M15.998 9.836a6.164 6.164 0 1 0 6.163 6.163 6.164 6.164 0 0 0-6.163-6.163zm0 10.161a3.998 3.998 0 1 1 0-7.996 3.998 3.998 0 0 1 0 7.996zM23.843 9.592a1.439 1.439 0 1 1-2.877 0 1.439 1.439 0 0 1 2.877 0z"/></symbol>
<symbol id="logo" viewBox="0 0 56 32"><path d="M22.524 8.795a5.026 5.026 0 1 0-10.004.98 5.026 5.026 0 0 0 10.004-.98zm-3.746-3.351c.061 0 .107.012.164.028l.012.003c.022.112 0 .164-.059.259a8.48 8.48 0 0 1-.331.486c-.201.282-.403.564-.541.886-.299.697-.23 1.51-.159 2.331.062.719.124 1.444-.06 2.104-.222.794-.778 1.313-1.474 1.7a.553.553 0 0 1-.122 0l-.025-.002-.016-.001-.007-.013c-.04-.075-.042-.08-.013-.166.037-.111.112-.225.181-.333.027-.041.053-.081.076-.12.242-.403.479-.839.554-1.31.093-.588.043-1.193-.006-1.797-.063-.767-.125-1.535.102-2.268.28-.9.935-1.37 1.723-1.789zM34.356 23.395a4.899 4.899 0 1 0-9.731 1.138 4.899 4.899 0 0 0 9.731-1.138zm-5.424-3.171c.65-.048 1.258.11 1.782.5.848.631 1.281 1.673 1.424 2.694.152 1.077.137 2.573-.565 3.475-.383.492-.867.691-1.466.765a2.66 2.66 0 0 1-1.8-.482c-.825-.595-1.249-1.573-1.402-2.553-.175-1.116-.169-2.678.555-3.62.385-.501.866-.7 1.472-.778zM6.45.245C7.322.131 8.308.22 9.156.434c.516.13 1.03.307 1.558.381.303.043.621.039.927.045.05.849.213 2.883.115 3.63-.156.03-.276.022-.433 0-.161-.186-.237-.602-.333-.844a3.485 3.485 0 0 0-1.934-1.925c-1.102-.452-2.417-.394-3.502.075-1.14.493-2.069 1.478-2.522 2.633-.701 1.788-.696 4.083.09 5.843.545 1.22 1.515 2.293 2.784 2.769 1.211.455 2.528.32 3.688-.212.518-.264.997-.657 1.306-1.156.174-.282.303-.818.579-1l.077.031c.297.376.408 1.55.506 2.055-1.118.986-2.468 1.639-3.951 1.835-1.941.255-3.967-.137-5.535-1.347C1.148 12.145.281 10.414.067 8.64c-.249-2.062.206-4.142 1.511-5.783C2.78 1.345 4.549.461 6.452.243zM42.902 5.142c-.52-.129-1.148-.199-1.681-.133-1.243.122-2.306.601-3.114 1.576a5.331 5.331 0 0 0-1.182 3.9c.124 1.198.675 2.389 1.63 3.147 1.004.797 2.422 1.021 3.668.874 1.106-.131 2.086-.608 2.772-1.501.314-.408.542-.869.721-1.35a3.924 3.924 0 0 1-.066-.064c-.106-.104-.215-.212-.358-.255a.636.636 0 0 1-.033.014.168.168 0 0 0-.097.08c-.591.871-1.269 1.447-2.328 1.645-.825.154-1.646.012-2.338-.474a3.622 3.622 0 0 1-1.24-1.578c1.266-.751 2.642-1.511 4.099-1.809.288-.059.582-.092.875-.125.308-.035.615-.069.914-.134.2-.043.344-.084.412-.296.17-.533-.099-1.403-.367-1.862-.491-.84-1.353-1.423-2.288-1.655zm-1.288.847c.237.001.49.018.718.081.386.106.735.335.923.696.13.25.232.651.13.924-.086.23-.272.387-.477.508-.256.151-.563.248-.859.342-.101.032-.2.063-.295.096-.517.179-1.026.373-1.519.612-.113.05-.255.14-.407.236-.285.18-.602.38-.817.377-.115-.096-.144-.176-.156-.32-.08-.958.306-2.047.925-2.771.454-.53 1.166-.726 1.834-.78zM52.214 5.05a5.731 5.731 0 0 0-1.111-.042c-1.262.103-2.328.563-3.154 1.545a5.314 5.314 0 0 0-1.211 3.904c.111 1.168.657 2.363 1.577 3.114.991.808 2.469 1.084 3.716.943 1.11-.126 2.107-.647 2.8-1.528a4.73 4.73 0 0 0 .739-1.358 3.276 3.276 0 0 1-.067-.06c-.115-.105-.251-.229-.396-.241-.594.894-1.305 1.524-2.382 1.741-.812.164-1.6.044-2.297-.418-.598-.397-1.033-.975-1.343-1.616 1.369-.931 3.053-1.645 4.68-1.946.202-.037.407-.053.612-.069.17-.013.339-.026.507-.052.219-.033.44-.083.489-.333.138-.704-.14-1.552-.556-2.118-.627-.854-1.567-1.322-2.603-1.466zm-1.203.973c.424-.034.838-.055 1.246.095.392.143.708.426.879.81.113.252.162.535.055.798a.919.919 0 0 1-.301.378c-.308.225-1.07.491-1.732.722-.326.114-.629.22-.841.308-.34.152-.669.336-.996.52-.182.102-.363.204-.546.3-.154-.938-.057-1.894.453-2.716.422-.679 1.017-1.038 1.783-1.213zM19.573 16.304c1.004-.006 3.825-.131 4.586.07.064.087.058.089.05.198-.176.296-.551.416-.812.628a.946.946 0 0 0-.331.488c-.168.709-.102 1.528-.102 2.256l-.02 3.074c-.005.733.018 1.483-.068 2.212-.123 1.043-.583 2.012-1.426 2.662-1.05.81-2.517.99-3.801.816-1.124-.152-2.221-.639-2.921-1.562-.634-.837-.795-1.815-.66-2.838a3.33 3.33 0 0 1 .146-.528 2.485 2.485 0 0 1 1.339-1.433c.667-.286 1.508-.307 2.178-.018.326.14.531.381.651.715.073.204.097.379.004.577-.27.255-.878-.087-1.256.019a1.282 1.282 0 0 0-.782.658c-.29.549-.297 1.268-.089 1.846.185.515.603.931 1.095 1.159.585.27 1.407.338 2.018.111.473-.176.821-.552 1.012-1.015.164-.398.242-.856.28-1.283.087-.963.196-6.777-.016-7.406-.224-.663-.986-.683-1.161-1.087a.46.46 0 0 1 .049-.251l.038-.067zM40.318 27.076c.428-1.06.798-2.152 1.192-3.225.308-.836.688-1.7.876-2.57a1.13 1.13 0 0 0 .006-.554c-.158-.565-.887-.52-1.052-.956.023-.096.009-.137.101-.196.169-.108 3.144-.119 3.509-.073.121.015.208.042.288.14.008.21-.042.305-.231.412-.303.171-.688.258-.915.539-.357.443-1.702 4.23-2.034 5.091l-1.109 2.878c-.279.723-.541 1.508-.956 2.166-.252.398-.591.783-1.001 1.02-.599.345-1.359.408-2.022.222-.515-.145-.986-.464-1.233-.949a1.746 1.746 0 0 1-.1-1.304c.107-.305.354-.557.648-.689.19-.085.502-.158.699-.051.469.255.163 1.097.343 1.546a.525.525 0 0 0 .303.319c.251.101.686-.037.912-.147.764-.373 1.085-1.573 1.339-2.315-.321.006-.691.045-1.007-.01a.472.472 0 0 1-.155-.047c-.105-.061-.172-.171-.226-.276-.249-.486-.418-1.051-.613-1.563l-1.212-3.191c-.239-.627-.455-1.281-.748-1.884-.218-.45-.51-.909-.959-1.157-.223-.123-.516-.121-.667-.345-.026-.152.001-.245.048-.39.804-.033 4.036-.117 4.63.049a.638.638 0 0 1-.007.382c-.071.176-.412.231-.569.294-.169.068-.316.171-.382.349-.072.197.024.513.081.712.246.872.643 1.734.97 2.583.409 1.06.777 2.16 1.253 3.191zM34.627 1.037c.714-.037 1.391.054 2.015.428.455.273.841.683.956 1.214.063.288.043.593-.125.844-.182.272-.55.484-.873.524-.194.024-.422-.002-.578-.128-.361-.292-.193-.81-.261-1.209a.731.731 0 0 0-.335-.512 1.42 1.42 0 0 0-1.039-.146c-.279.077-.48.274-.608.528-.409.807-.183 1.861.07 2.677.856.021 1.716.004 2.573.003.002.363-.004.721-.032 1.083-.827-.001-1.656-.013-2.483.018-.053.85-.032 1.714-.037 2.566-.008 1.275-.134 2.683.159 3.924.044.115.093.223.153.331.258.469.416.419.875.57.156.051.247.115.315.26a.397.397 0 0 1-.098.269c-.041.026-.057.041-.11.05-.166.032-4.158.014-4.384-.023-.155-.026-.264-.06-.362-.192.064-.377.484-.35.736-.594.289-.279.434-.653.514-1.04.175-.842.107-1.795.104-2.655l-.016-3.479-1.633-.006c-.033-.359-.035-.722-.045-1.083l1.626-.001a4.327 4.327 0 0 1-.194-.75 2.845 2.845 0 0 1 .533-2.123c.614-.809 1.601-1.222 2.585-1.35z"/><path d="M27.871 1.038c.658-.055 1.289-.007 1.88.316.472.258.874.684 1.019 1.212.09.327.099.741-.085 1.038a.86.86 0 0 1-.589.379c-.219.041-.508.04-.69-.106-.345-.277-.114-.81-.191-1.178-.046-.221-.225-.409-.418-.515-.305-.167-.744-.188-1.074-.088a.965.965 0 0 0-.606.518c-.364.743-.088 1.882.162 2.622.82.049 1.658.011 2.48.015.021.367.002.726-.02 1.092-.835-.002-1.67.001-2.505.009a71.137 71.137 0 0 0-.046 3.133c-.003 1.076-.11 2.285.206 3.323.347.76 1.067.888 1.237 1.294-.026.074-.015.087-.089.13-.263.157-4.261.126-4.618.042-.014-.049-.032-.105-.034-.155-.011-.317.489-.45.681-.64.267-.264.4-.753.462-1.117.139-.818.095-1.72.094-2.549L25.12 6.35l-1.628-.007c-.025-.361-.024-.721-.023-1.083.519.006 1.039.005 1.558-.002-.08-.265-.165-.53-.206-.804-.111-.745.051-1.482.507-2.088.612-.814 1.565-1.191 2.545-1.329z"/></symbol>
<symbol id="map-marker" viewBox="0 0 26 32"><path d="M12.8 19.2c3.53 0 6.4-2.87 6.4-6.4s-2.87-6.4-6.4-6.4c-3.53 0-6.4 2.87-6.4 6.4s2.87 6.4 6.4 6.4zm0-9.6c1.765 0 3.2 1.435 3.2 3.2S14.565 16 12.8 16c-1.765 0-3.2-1.435-3.2-3.2s1.435-3.2 3.2-3.2z"/><path d="M11.872 31.702a1.6 1.6 0 0 0 1.856 0c.486-.344 11.918-8.598 11.872-18.902C25.6 5.742 19.858 0 12.8 0S0 5.742 0 12.792c-.046 10.312 11.386 18.566 11.872 18.91zM12.8 3.2c5.294 0 9.6 4.306 9.6 9.608.034 7.101-7.021 13.477-9.6 15.568-2.578-2.093-9.634-8.47-9.6-15.576 0-5.294 4.306-9.6 9.6-9.6z"/></symbol>
<symbol id="map-pin" viewBox="0 0 32 32"><path d="m16 24 1.6-3.2v-8.227c2.754-.715 4.8-3.2 4.8-6.173C22.4 2.87 19.53 0 16 0S9.6 2.87 9.6 6.4c0 2.973 2.046 5.458 4.8 6.173V20.8L16 24zM12.8 6.4c0-1.765 1.435-3.2 3.2-3.2s3.2 1.435 3.2 3.2c0 1.765-1.435 3.2-3.2 3.2s-3.2-1.435-3.2-3.2z"/><path d="m22.827 13.701-.853 3.085C26.12 17.932 28.8 20.135 28.8 22.4c0 3.027-5.256 6.4-12.8 6.4S3.2 25.427 3.2 22.4c0-2.266 2.68-4.469 6.827-5.616l-.853-3.085C3.515 15.264 0 18.597 0 22.4 0 27.782 7.029 32 16 32s16-4.218 16-9.6c0-3.803-3.515-7.136-9.173-8.699z"/></symbol>
<symbol id="menu" viewBox="0 0 43 32"><path d="M0 0h42.667v5.333H0V0zm0 13.333h42.667v5.333H0v-5.333zm0 13.334h42.667V32H0v-5.333z"/></symbol>
<symbol id="phone" viewBox="0 0 32 32"><path d="M24.77 17.336a1.694 1.694 0 0 0-1.836-.365c-.205.084-.39.209-.546.365l-2.685 2.685c-1.245-.371-3.567-1.213-5.039-2.685s-2.314-3.795-2.685-5.039l2.685-2.685a1.694 1.694 0 0 0 .365-1.836 1.667 1.667 0 0 0-.365-.546L7.927.493A1.694 1.694 0 0 0 6.091.128c-.205.084-.39.209-.546.365L.977 5.061c-.64.64-1 1.519-.987 2.417.039 2.398.674 10.729 7.239 17.294s14.895 7.198 17.295 7.239h.047c.889 0 1.73-.35 2.366-.987l4.568-4.568a1.694 1.694 0 0 0 .365-1.836 1.667 1.667 0 0 0-.365-.546l-6.737-6.739zm-.214 11.304c-2.102-.035-9.293-.6-14.944-6.252C3.943 16.719 3.394 9.502 3.36 7.442l3.377-3.377 4.355 4.355-2.178 2.178c-.198.198-.344.442-.423.71s-.092.552-.035.826c.04.194 1.029 4.787 3.825 7.582s7.389 3.784 7.582 3.825a1.663 1.663 0 0 0 1.536-.457l2.179-2.178 4.355 4.355-3.379 3.377z"/></symbol>
<symbol id="twitter" viewBox="0 0 34 32"><path d="M26.684.457h5.195L20.528 13.214l13.353 17.36H23.426l-8.189-10.529-9.37 10.529H.668l12.141-13.646L-.001.456H10.72l7.402 9.624L26.683.456zm-1.823 27.059h2.879L9.157 3.354H6.068l18.794 24.162z"/></symbol>
<symbol id="chevron-right" viewBox="0 0 31 32"><path d="m12.425 22.691 7.305-7.305-7.305-7.305-1.81 1.81 5.495 5.495-5.495 5.495 1.81 1.81z"/></symbol>
<symbol id="icon-facebook" viewBox="0 0 31 32"><path d="M28.444 16.164c0-7.184-5.789-13.008-12.929-13.008s-12.929 5.824-12.929 13.008c0 6.493 4.728 11.874 10.909 12.85v-9.090h-3.283v-3.76h3.283v-2.866c0-3.26 1.93-5.061 4.884-5.061 1.415 0 2.894 0.254 2.894 0.254v3.201h-1.63c-1.606 0-2.107 1.003-2.107 2.031v2.44h3.586l-0.573 3.76h-3.013v9.090c6.181-0.976 10.909-6.357 10.909-12.85z"></path></symbol>
<symbol id="icon-instagram" viewBox="0 0 31 32"><path d="M15.514 6.23c3.109 0 3.477 0.014 4.699 0.068 1.137 0.050 1.75 0.241 2.159 0.4 0.541 0.209 0.931 0.464 1.336 0.868 0.409 0.409 0.659 0.796 0.873 1.337 0.159 0.409 0.35 1.027 0.4 2.159 0.055 1.227 0.068 1.595 0.068 4.7s-0.014 3.477-0.068 4.7c-0.050 1.137-0.241 1.75-0.4 2.159-0.209 0.541-0.463 0.931-0.868 1.336-0.409 0.409-0.796 0.659-1.336 0.873-0.409 0.159-1.027 0.35-2.159 0.4-1.228 0.055-1.595 0.068-4.7 0.068s-3.477-0.014-4.7-0.068c-1.137-0.050-1.75-0.241-2.159-0.4-0.541-0.209-0.931-0.463-1.337-0.868-0.409-0.409-0.659-0.796-0.873-1.336-0.159-0.409-0.35-1.027-0.4-2.159-0.055-1.228-0.068-1.595-0.068-4.7s0.014-3.477 0.068-4.7c0.050-1.137 0.241-1.75 0.4-2.159 0.209-0.541 0.464-0.932 0.868-1.337 0.409-0.409 0.796-0.659 1.337-0.873 0.409-0.159 1.027-0.35 2.159-0.4 1.222-0.055 1.591-0.068 4.7-0.068h0.001zM15.514 4.135c-3.159 0-3.554 0.014-4.795 0.068-1.236 0.055-2.086 0.255-2.822 0.541-0.768 0.3-1.418 0.695-2.063 1.345-0.65 0.646-1.046 1.295-1.345 2.059-0.287 0.741-0.487 1.586-0.541 2.822-0.055 1.246-0.068 1.641-0.068 4.799s0.014 3.554 0.068 4.795c0.055 1.236 0.255 2.086 0.541 2.822 0.3 0.768 0.695 1.418 1.345 2.063 0.645 0.645 1.295 1.046 2.059 1.341 0.741 0.287 1.586 0.486 2.822 0.541 1.241 0.055 1.636 0.068 4.795 0.068s3.554-0.014 4.795-0.068c1.236-0.055 2.086-0.254 2.822-0.541 0.764-0.295 1.414-0.695 2.059-1.341s1.046-1.295 1.341-2.059c0.286-0.741 0.486-1.586 0.541-2.822 0.055-1.241 0.068-1.636 0.068-4.795s-0.014-3.554-0.068-4.795c-0.055-1.236-0.255-2.086-0.541-2.822-0.287-0.773-0.682-1.422-1.331-2.068-0.645-0.645-1.295-1.046-2.059-1.341-0.741-0.287-1.586-0.487-2.822-0.541-1.245-0.059-1.641-0.073-4.799-0.073l-0.001 0.001z"></path><path d="M15.513 9.794c-3.299 0-5.977 2.677-5.977 5.977s2.677 5.977 5.977 5.977c3.3 0 5.977-2.677 5.977-5.977s-2.677-5.977-5.977-5.977zM15.513 19.647c-2.141 0-3.877-1.736-3.877-3.877s1.736-3.877 3.877-3.877c2.141 0 3.877 1.736 3.877 3.877s-1.736 3.877-3.877 3.877z"></path><path d="M23.12 9.557c0 0.771-0.625 1.395-1.395 1.395s-1.395-0.625-1.395-1.395c0-0.771 0.625-1.395 1.395-1.395s1.395 0.625 1.395 1.395z"></path></symbol>
<symbol id="icon-logo" viewBox="0 0 55 32"><path d="M22.447 8.791c-0.267-2.735-2.705-4.733-5.439-4.458-2.724 0.274-4.713 2.7-4.446 5.425s2.687 4.72 5.413 4.461c2.735-0.26 4.74-2.692 4.472-5.427zM18.745 5.479c0.061-0 0.106 0.012 0.162 0.028l0.012 0.003c0.022 0.111-0 0.162-0.058 0.256-0.101 0.165-0.214 0.323-0.327 0.481-0.199 0.279-0.398 0.558-0.535 0.875-0.296 0.689-0.227 1.492-0.157 2.303 0.061 0.71 0.122 1.427-0.060 2.079-0.219 0.784-0.769 1.297-1.457 1.68-0.038 0.006-0.080 0.003-0.121 0-0.008-0.001-0.017-0.001-0.025-0.002-0.005-0-0.010-0.001-0.016-0.001l-0.007-0.013c-0.039-0.075-0.042-0.079-0.013-0.164 0.037-0.11 0.11-0.223 0.179-0.329 0.026-0.041 0.052-0.080 0.075-0.118 0.239-0.399 0.474-0.829 0.547-1.294 0.092-0.581 0.043-1.178-0.006-1.776-0.062-0.758-0.124-1.517 0.101-2.241 0.276-0.889 0.924-1.353 1.703-1.768z"></path><path d="M34.14 23.22c-0.31-2.655-2.713-4.556-5.368-4.247-2.656 0.309-4.558 2.713-4.248 5.37s2.715 4.557 5.371 4.247c2.655-0.311 4.555-2.715 4.245-5.369zM28.78 20.086c0.642-0.048 1.243 0.109 1.761 0.494 0.838 0.623 1.266 1.654 1.408 2.662 0.15 1.064 0.135 2.543-0.558 3.434-0.378 0.486-0.857 0.683-1.449 0.756-0.631 0.061-1.263-0.108-1.779-0.476-0.815-0.588-1.234-1.555-1.386-2.523-0.173-1.103-0.167-2.647 0.548-3.578 0.38-0.495 0.855-0.692 1.455-0.769z"></path><path d="M6.562 0.342c0.861-0.113 1.836-0.024 2.674 0.187 0.51 0.129 1.018 0.303 1.539 0.377 0.3 0.042 0.614 0.039 0.916 0.044 0.049 0.839 0.211 2.849 0.114 3.588-0.154 0.030-0.273 0.022-0.428 0-0.159-0.184-0.234-0.595-0.329-0.834-0.35-0.874-1.043-1.546-1.912-1.902-1.089-0.446-2.388-0.389-3.461 0.074-1.127 0.487-2.045 1.461-2.492 2.602-0.693 1.767-0.688 4.035 0.089 5.774 0.539 1.205 1.497 2.266 2.751 2.736 1.197 0.449 2.498 0.316 3.645-0.209 0.512-0.261 0.986-0.65 1.29-1.142 0.172-0.278 0.299-0.808 0.572-0.988l0.076 0.030c0.294 0.371 0.403 1.532 0.5 2.031-1.105 0.974-2.439 1.62-3.904 1.813-1.918 0.252-3.92-0.135-5.47-1.331-1.411-1.089-2.268-2.8-2.48-4.553-0.246-2.037 0.204-4.093 1.493-5.715 1.188-1.494 2.936-2.368 4.816-2.583z"></path><path d="M42.586 5.181c-0.514-0.128-1.135-0.197-1.661-0.132-1.229 0.121-2.279 0.594-3.077 1.558-0.885 1.079-1.304 2.465-1.168 3.854 0.122 1.184 0.667 2.361 1.611 3.11 0.992 0.787 2.394 1.009 3.625 0.863 1.093-0.129 2.062-0.601 2.74-1.484 0.31-0.403 0.535-0.859 0.713-1.334-0.022-0.021-0.044-0.042-0.066-0.063-0.105-0.103-0.213-0.209-0.353-0.252-0.012 0.006-0.023 0.010-0.033 0.014-0.043 0.018-0.060 0.025-0.096 0.079-0.585 0.861-1.254 1.43-2.301 1.626-0.815 0.153-1.626 0.012-2.31-0.468-0.544-0.382-0.974-0.946-1.225-1.56 1.251-0.742 2.611-1.493 4.051-1.788 0.285-0.058 0.576-0.091 0.865-0.124 0.305-0.034 0.608-0.069 0.903-0.132 0.198-0.043 0.34-0.083 0.407-0.293 0.169-0.526-0.097-1.386-0.363-1.84-0.485-0.83-1.336-1.406-2.261-1.636zM41.313 6.018c0.234 0.001 0.485 0.018 0.71 0.080 0.381 0.105 0.726 0.331 0.912 0.688 0.128 0.247 0.229 0.643 0.128 0.913-0.085 0.227-0.268 0.382-0.471 0.502-0.253 0.149-0.557 0.245-0.849 0.338-0.099 0.031-0.197 0.063-0.292 0.095-0.511 0.176-1.014 0.369-1.501 0.604-0.111 0.050-0.252 0.138-0.402 0.233-0.281 0.178-0.595 0.376-0.808 0.372-0.113-0.095-0.142-0.174-0.154-0.317-0.079-0.946 0.302-2.023 0.914-2.739 0.448-0.524 1.152-0.717 1.813-0.771z"></path><path d="M51.788 5.090c-0.363-0.050-0.731-0.064-1.098-0.041-1.247 0.102-2.301 0.556-3.117 1.527-0.898 1.075-1.328 2.464-1.197 3.858 0.11 1.155 0.649 2.336 1.559 3.077 0.979 0.798 2.44 1.072 3.672 0.932 1.097-0.124 2.082-0.639 2.767-1.51 0.315-0.404 0.562-0.857 0.73-1.341-0.021-0.018-0.043-0.039-0.066-0.060-0.114-0.104-0.248-0.226-0.391-0.238-0.587 0.884-1.29 1.506-2.354 1.72-0.802 0.162-1.581 0.044-2.27-0.413-0.591-0.392-1.021-0.964-1.327-1.597 1.353-0.92 3.017-1.625 4.625-1.923 0.2-0.037 0.402-0.053 0.605-0.068 0.168-0.013 0.335-0.026 0.501-0.051 0.216-0.033 0.435-0.082 0.483-0.329 0.136-0.696-0.138-1.533-0.549-2.093-0.62-0.844-1.549-1.307-2.572-1.449zM50.6 6.052c0.419-0.033 0.827-0.054 1.232 0.094 0.387 0.142 0.7 0.421 0.868 0.8 0.111 0.249 0.16 0.529 0.055 0.788-0.060 0.147-0.17 0.28-0.297 0.373-0.305 0.223-1.057 0.485-1.712 0.714-0.323 0.113-0.622 0.217-0.831 0.304-0.336 0.15-0.661 0.332-0.984 0.514-0.18 0.101-0.359 0.201-0.54 0.296-0.152-0.927-0.057-1.872 0.448-2.684 0.417-0.671 1.005-1.026 1.762-1.199z"></path><path d="M19.531 16.212c0.992-0.006 3.78-0.129 4.532 0.069 0.063 0.086 0.057 0.088 0.049 0.195-0.174 0.293-0.545 0.411-0.802 0.621-0.149 0.121-0.283 0.293-0.327 0.483-0.166 0.7-0.101 1.51-0.101 2.229l-0.020 3.038c-0.005 0.725 0.017 1.466-0.068 2.186-0.122 1.031-0.576 1.989-1.409 2.63-1.038 0.8-2.487 0.979-3.756 0.806-1.111-0.15-2.195-0.632-2.886-1.544-0.627-0.827-0.786-1.793-0.653-2.805 0.035-0.179 0.080-0.351 0.144-0.522 0.236-0.63 0.699-1.148 1.323-1.416 0.659-0.282 1.49-0.303 2.152-0.018 0.322 0.138 0.525 0.377 0.644 0.707 0.072 0.202 0.096 0.374 0.004 0.57-0.267 0.252-0.868-0.086-1.241 0.019-0.344 0.096-0.608 0.338-0.773 0.651-0.286 0.543-0.293 1.253-0.088 1.824 0.182 0.509 0.596 0.92 1.082 1.146 0.578 0.267 1.39 0.334 1.994 0.109 0.468-0.174 0.811-0.546 1-1.003 0.163-0.394 0.239-0.846 0.277-1.268 0.086-0.951 0.193-6.697-0.016-7.319-0.221-0.656-0.975-0.675-1.148-1.074 0-0.096 0.002-0.163 0.049-0.248 0.012-0.023 0.025-0.044 0.038-0.066z"></path><path d="M40.032 26.857c0.423-1.047 0.788-2.127 1.178-3.187 0.304-0.826 0.68-1.68 0.866-2.54 0.040-0.183 0.057-0.364 0.006-0.547-0.156-0.558-0.876-0.514-1.039-0.945 0.023-0.095 0.009-0.136 0.1-0.194 0.166-0.107 3.107-0.118 3.467-0.072 0.12 0.015 0.206 0.042 0.284 0.138 0.008 0.207-0.042 0.302-0.228 0.407-0.299 0.169-0.68 0.255-0.904 0.533-0.353 0.437-1.682 4.18-2.010 5.031l-1.096 2.844c-0.276 0.714-0.534 1.491-0.945 2.14-0.249 0.393-0.584 0.774-0.99 1.008-0.593 0.34-1.344 0.403-1.998 0.219-0.509-0.143-0.974-0.459-1.218-0.938-0.193-0.379-0.24-0.884-0.099-1.288 0.106-0.301 0.35-0.551 0.64-0.68 0.188-0.084 0.496-0.156 0.691-0.051 0.463 0.252 0.161 1.084 0.339 1.528 0.060 0.149 0.148 0.254 0.3 0.316 0.248 0.1 0.678-0.037 0.901-0.145 0.755-0.368 1.072-1.555 1.323-2.288-0.317 0.006-0.683 0.045-0.995-0.010-0.049-0.008-0.11-0.021-0.153-0.047-0.103-0.060-0.17-0.169-0.223-0.273-0.246-0.48-0.413-1.039-0.606-1.544l-1.198-3.153c-0.236-0.62-0.45-1.266-0.739-1.862-0.216-0.444-0.504-0.898-0.948-1.144-0.22-0.121-0.51-0.12-0.659-0.341-0.026-0.15 0.001-0.242 0.048-0.386 0.794-0.032 3.988-0.115 4.576 0.048 0.032 0.112 0.038 0.267-0.007 0.377-0.070 0.174-0.407 0.228-0.562 0.29-0.167 0.067-0.312 0.169-0.377 0.345-0.072 0.194 0.024 0.507 0.080 0.704 0.243 0.861 0.635 1.714 0.958 2.552 0.404 1.047 0.768 2.134 1.239 3.154z"></path><path d="M34.408 1.124c0.705-0.037 1.375 0.053 1.991 0.423 0.45 0.269 0.831 0.675 0.944 1.2 0.062 0.285 0.042 0.586-0.123 0.834-0.18 0.269-0.544 0.478-0.863 0.518-0.192 0.024-0.417-0.002-0.571-0.126-0.357-0.288-0.191-0.801-0.258-1.195-0.037-0.212-0.147-0.391-0.331-0.506-0.278-0.174-0.712-0.232-1.027-0.144-0.275 0.076-0.474 0.271-0.601 0.522-0.404 0.797-0.18 1.839 0.069 2.645 0.846 0.021 1.696 0.004 2.543 0.003 0.002 0.359-0.004 0.712-0.031 1.071-0.818-0.001-1.637-0.013-2.454 0.018-0.052 0.84-0.032 1.694-0.037 2.536-0.008 1.26-0.132 2.651 0.157 3.878 0.044 0.114 0.092 0.221 0.151 0.327 0.255 0.463 0.412 0.414 0.865 0.563 0.155 0.051 0.244 0.114 0.311 0.257-0.006 0.122-0.025 0.168-0.097 0.266-0.040 0.025-0.056 0.040-0.109 0.050-0.164 0.031-4.109 0.014-4.332-0.023-0.153-0.026-0.261-0.060-0.358-0.19 0.064-0.372 0.478-0.346 0.727-0.587 0.286-0.276 0.429-0.646 0.508-1.028 0.173-0.832 0.106-1.774 0.103-2.624l-0.016-3.438-1.613-0.006c-0.033-0.355-0.035-0.714-0.044-1.070l1.607-0.001c-0.079-0.24-0.157-0.49-0.192-0.741-0.102-0.742 0.070-1.497 0.526-2.098 0.607-0.8 1.583-1.208 2.554-1.334z"></path><path d="M27.731 1.125c0.65-0.055 1.274-0.007 1.857 0.312 0.466 0.255 0.864 0.676 1.007 1.197 0.089 0.323 0.098 0.732-0.084 1.026-0.129 0.208-0.345 0.33-0.582 0.375-0.216 0.040-0.502 0.040-0.682-0.105-0.341-0.274-0.113-0.801-0.189-1.164-0.046-0.219-0.222-0.404-0.413-0.509-0.301-0.165-0.735-0.185-1.061-0.087-0.27 0.081-0.475 0.258-0.599 0.512-0.36 0.735-0.087 1.86 0.16 2.591 0.81 0.048 1.638 0.011 2.451 0.015 0.020 0.362 0.002 0.718-0.020 1.080-0.825-0.002-1.65 0.001-2.475 0.009-0.038 1.032-0.053 2.064-0.046 3.096-0.003 1.063-0.109 2.258 0.203 3.284 0.343 0.751 1.054 0.877 1.222 1.279-0.026 0.073-0.015 0.086-0.088 0.129-0.26 0.155-4.211 0.125-4.564 0.041-0.014-0.048-0.032-0.103-0.033-0.153-0.011-0.313 0.483-0.445 0.673-0.632 0.264-0.261 0.395-0.744 0.456-1.104 0.138-0.809 0.094-1.7 0.093-2.519l-0.007-3.423-1.609-0.007c-0.024-0.357-0.024-0.712-0.023-1.070 0.513 0.006 1.027 0.005 1.54-0.002-0.079-0.261-0.163-0.524-0.204-0.795-0.11-0.737 0.050-1.464 0.501-2.063 0.605-0.804 1.547-1.177 2.515-1.313z"></path></symbol>
<symbol id="icon-vector" viewBox="0 0 33 32"><path d="M26.298 1.281h5.12l-11.186 12.573 13.16 17.109h-10.304l-8.070-10.376-9.234 10.376h-5.123l11.965-13.448-12.624-16.233h10.565l7.295 9.484 8.437-9.484zM24.5 27.949h2.837l-18.314-23.812h-3.045l18.521 23.812z"></path></symbol>
</defs></svg>