<svg xmlns="http://www.w3.org/2000/svg" width="24" height="24" fill="none"><path fill="#0B0803" d="M23.942 10.832C23.296 4.225 17.407-.601 10.801.061 4.22.721-.586 6.584.058 13.168.7 19.75 6.55 24.57 13.136 23.946c6.61-.629 11.452-6.506 10.806-13.114Zm-8.945-8c.147-.001.256.029.393.066l.029.008c.053.267 0 .391-.14.619-.245.398-.517.78-.79 1.162-.481.673-.962 1.347-1.292 2.114-.714 1.664-.548 3.604-.38 5.565.148 1.716.296 3.448-.143 5.023-.53 1.896-1.857 3.135-3.52 4.06-.092.015-.194.007-.292 0a7.409 7.409 0 0 0-.06-.005l-.038-.002-.016-.03c-.095-.18-.1-.191-.032-.397.09-.265.266-.538.433-.794a9.4 9.4 0 0 0 .182-.286c.578-.963 1.144-2.003 1.322-3.127.221-1.403.103-2.848-.015-4.292-.15-1.832-.299-3.665.245-5.414.668-2.15 2.232-3.27 4.114-4.27Z"/></svg>